<svg width="1024" height="1024" viewBox="0 0 1024 1024" fill="none" xmlns="http://www.w3.org/2000/svg">
  <defs>
    <linearGradient id="iconBackground" x1="164" y1="86" x2="854" y2="938" gradientUnits="userSpaceOnUse">
      <stop stop-color="#17122B"/>
      <stop offset="1" stop-color="#090B14"/>
    </linearGradient>
    <linearGradient id="iconMark" x1="735" y1="235" x2="250" y2="835" gradientUnits="userSpaceOnUse">
      <stop stop-color="#7C5CFF"/>
      <stop offset="0.52" stop-color="#FF5C8A"/>
      <stop offset="1" stop-color="#2DE2C5"/>
    </linearGradient>
  </defs>
  <rect x="32" y="32" width="960" height="960" rx="220" fill="url(#iconBackground)"/>
  <g opacity="0.11" stroke="#F7F7F2" stroke-width="9" stroke-linecap="round">
    <path d="M152 368C286 337 404 349 512 383C642 424 758 427 872 385"/>
    <path d="M152 456C286 425 404 437 512 471C642 512 758 515 872 473"/>
    <path d="M152 544C286 513 404 525 512 559C642 600 758 603 872 561"/>
    <path d="M152 632C286 601 404 613 512 647C642 688 758 691 872 649"/>
  </g>
  <ellipse cx="306" cy="752" rx="132" ry="91" transform="rotate(-16 306 752)" fill="url(#iconMark)"/>
  <path d="M390 716C510 676 540 600 492 528C447 461 414 405 450 340C498 253 620 226 736 282"
        stroke="url(#iconMark)" stroke-width="86" stroke-linecap="round" stroke-linejoin="round"/>
  <path d="M710 237C810 258 864 337 841 443C795 389 738 362 666 371C691 331 705 285 710 237Z"
        fill="url(#iconMark)"/>
</svg>
