<svg width="986" height="116" viewBox="0 0 986 116" fill="none" xmlns="http://www.w3.org/2000/svg">
  <defs>
    <linearGradient id="songGradient" x1="22" y1="17" x2="100" y2="101" gradientUnits="userSpaceOnUse">
      <stop stop-color="#7C5CFF"/>
      <stop offset="0.52" stop-color="#FF5C8A"/>
      <stop offset="1" stop-color="#2DE2C5"/>
    </linearGradient>
  </defs>

  <rect width="986" height="116" fill="#F7F7F2"/>
  <rect y="111" width="986" height="5" fill="url(#songGradient)"/>
  <g transform="translate(7 -3) scale(0.12)">
    <ellipse cx="306" cy="752" rx="132" ry="91" transform="rotate(-16 306 752)" fill="url(#songGradient)"/>
    <path d="M390 716C510 676 540 600 492 528C447 461 414 405 450 340C498 253 620 226 736 282"
          stroke="url(#songGradient)" stroke-width="86" stroke-linecap="round" stroke-linejoin="round"/>
    <path d="M710 237C810 258 864 337 841 443C795 389 738 362 666 371C691 331 705 285 710 237Z"
          fill="url(#songGradient)"/>
  </g>
  <text x="112" y="58" fill="#171923" font-family="Segoe UI, Arial, sans-serif" font-size="36" font-weight="700" letter-spacing="4">SONG</text>
  <text x="114" y="84" fill="#646777" font-family="Segoe UI, Arial, sans-serif" font-size="14" font-weight="600" letter-spacing="2.5">BY FINALVERSE</text>
  <text x="944" y="69" fill="#646777" font-family="Segoe UI, Arial, sans-serif" font-size="18" font-weight="500" text-anchor="end">Finalverse Song Studio</text>
</svg>
